<svg xmlns="http://www.w3.org/2000/svg" viewBox="0 0 64 64" role="img" aria-labelledby="title desc">
  <title id="title">職安守護盾牌 Favicon</title>
  <desc id="desc">透明背景上的橘色安全盾牌與白色確認勾勾。</desc>
  <defs>
    <linearGradient id="shieldFill" x1="16" y1="8" x2="50" y2="58" gradientUnits="userSpaceOnUse">
      <stop stop-color="#f9ad5a"/>
      <stop offset=".48" stop-color="#f59840"/>
      <stop offset="1" stop-color="#e8821a"/>
    </linearGradient>
    <linearGradient id="shieldEdge" x1="14" y1="9" x2="52" y2="58" gradientUnits="userSpaceOnUse">
      <stop stop-color="#ffd29a"/>
      <stop offset="1" stop-color="#c96a10"/>
    </linearGradient>
    <filter id="softShadow" x="-16" y="-10" width="96" height="90" color-interpolation-filters="sRGB">
      <feDropShadow dx="0" dy="3" stdDeviation="2.4" flood-color="#7c3f0a" flood-opacity=".28"/>
    </filter>
  </defs>

  <path
    d="M32 5.5 53 13v18.7c0 13.8-8.1 23.1-21 28.3-12.9-5.2-21-14.5-21-28.3V13L32 5.5Z"
    fill="url(#shieldEdge)"
    filter="url(#softShadow)"
  />
  <path
    d="M32 10.2 48.6 16v15.4c0 10.6-6.1 18.2-16.6 23-10.5-4.8-16.6-12.4-16.6-23V16L32 10.2Z"
    fill="url(#shieldFill)"
  />
  <path
    d="M32 10.2 48.6 16v15.4c0 10.6-6.1 18.2-16.6 23V10.2Z"
    fill="#f28722"
    opacity=".34"
  />
  <path
    d="M22.2 33.3 29 40.2 43.2 23.6"
    fill="none"
    stroke="#fff"
    stroke-width="7.2"
    stroke-linecap="round"
    stroke-linejoin="round"
  />
  <path
    d="M18.8 18.5 32 13.9l13.2 4.6"
    fill="none"
    stroke="#fff"
    stroke-width="2.1"
    stroke-linecap="round"
    opacity=".38"
  />
</svg>
